<?xml version="1.0" standalone="no"?>
<!DOCTYPE svg PUBLIC "-//W3C//DTD SVG 20010904//EN"
 "http://www.w3.org/TR/2001/REC-SVG-20010904/DTD/svg10.dtd">
<svg version="1.0" xmlns="http://www.w3.org/2000/svg"
 width="700.000000pt" height="700.000000pt" viewBox="0 0 700.000000 700.000000"
 preserveAspectRatio="xMidYMid meet">
<metadata>
Created by potrace 1.11, written by Peter Selinger 2001-2013
</metadata>
<g transform="translate(0.000000,700.000000) scale(0.100000,-0.100000)"
fill="#000000" stroke="none">
<path d="M1639 5836 c-2 -2 -40 -7 -84 -10 -44 -4 -87 -9 -95 -11 -8 -2 -37
-6 -65 -10 -27 -3 -111 -21 -186 -40 -235 -58 -360 -117 -415 -197 -26 -37
-29 -49 -28 -117 0 -42 8 -99 17 -128 l16 -52 -65 -128 c-77 -153 -132 -291
-173 -433 -26 -92 -34 -128 -56 -240 -21 -104 -28 -435 -12 -535 5 -27 10 -61
12 -75 11 -83 75 -293 96 -314 5 -6 9 -18 9 -28 0 -10 5 -18 10 -18 6 0 10 -5
10 -11 0 -21 80 -127 129 -169 154 -135 341 -170 623 -120 66 12 224 62 270
86 29 15 41 13 106 -19 70 -34 95 -79 107 -192 11 -108 13 -118 19 -155 4 -19
9 -48 12 -65 15 -91 77 -275 121 -360 59 -114 72 -142 88 -190 25 -74 41 -141
54 -230 66 -433 129 -562 297 -611 30 -8 54 -21 54 -27 0 -25 68 -140 106
-179 59 -62 131 -90 234 -91 107 -1 160 20 233 96 116 119 196 307 227 540 5
37 14 75 19 85 25 46 104 93 196 118 101 27 143 35 260 48 28 3 75 8 105 12
87 10 511 11 557 2 59 -12 68 -43 58 -202 -15 -258 -7 -353 40 -446 49 -95
147 -155 275 -166 56 -5 84 -14 119 -35 65 -40 127 -57 207 -55 210 6 380 206
554 652 65 168 107 238 186 314 149 143 182 179 236 252 71 96 188 303 188
333 0 3 9 24 19 48 37 83 108 325 126 432 2 11 8 47 14 80 6 33 13 74 16 90 2
17 7 57 11 90 3 33 8 71 11 85 9 46 11 464 2 520 -5 30 -11 73 -14 95 -5 43
-5 44 -29 147 -81 340 -291 610 -596 763 -110 56 -263 107 -355 119 -27 4 -51
9 -55 11 -4 2 -33 7 -66 10 -32 3 -77 8 -99 11 -81 12 -529 3 -606 -11 -9 -2
-40 -6 -70 -10 -44 -5 -153 -26 -259 -50 -236 -52 -376 -68 -605 -69 -201 0
-285 18 -425 92 -76 41 -90 51 -280 203 -176 140 -269 203 -386 263 -83 42
-284 120 -284 111 0 -2 -18 2 -40 10 -65 23 -192 48 -330 64 -87 11 -365 23
-371 17z"/>
</g>
</svg>
